<svg fill="none" height="17" viewBox="0 0 28 17" width="28" xmlns="http://www.w3.org/2000/svg"><rect fill="#1b2b22" height="16.4" rx="3" width="27.6706"/><g fill="#0f6"><path d="m8.08 6.82h1.2v-.66c0-1.2-.96-2.16-2.16-2.16h-.96c-1.188 0-2.16.96-2.16 2.16v4.068c0 1.188.972 2.172 2.16 2.172h.96c1.2 0 2.16-.984 2.16-2.172v-.66h-1.2v.66c0 .528-.432.96-.96.96h-.96c-.528 0-.96-.432-.96-.96v-4.068c0-.528.42-.96.96-.96h.96c.54 0 .96.42.96.96z"/><path d="m15.2753 6.82h1.2v-.66c0-1.2-.96-2.16-2.16-2.16h-.96c-1.188 0-2.16.96-2.16 2.16v4.068c0 1.188.972 2.172 2.16 2.172h.96c1.2 0 2.16-.984 2.16-2.172v-.66h-1.2v.66c0 .528-.432.96-.96.96h-.96c-.528 0-.96-.432-.96-.96v-4.068c0-.528.42-.96.96-.96h.96c.54 0 .96.42.96.96z"/><path d="m21.5106 4h-.96c-1.188 0-2.16.96-2.16 2.16v4.068c0 1.188.972 2.172 2.16 2.172h.96c1.2 0 2.16-.984 2.16-2.172v-4.068c0-1.2-.96-2.16-2.16-2.16zm0 1.2c.54 0 .96.42.96.96v3.228l-2.472-4.02c.156-.108.348-.168.552-.168zm-.96 5.988c-.528 0-.96-.432-.96-.96v-3.216l2.46 4.008c-.156.108-.336.168-.54.168z"/></g></svg>
