<svg width="26" height="15" viewBox="0 0 26 15" fill="none" xmlns="http://www.w3.org/2000/svg">
<rect width="25.6706" height="14.4" rx="3" fill="black"/>
<path d="M7.08 5.82H8.28V5.16C8.28 3.96 7.32 3 6.12 3H5.16C3.972 3 3 3.96 3 5.16V9.228C3 10.416 3.972 11.4 5.16 11.4H6.12C7.32 11.4 8.28 10.416 8.28 9.228V8.568H7.08V9.228C7.08 9.756 6.648 10.188 6.12 10.188H5.16C4.632 10.188 4.2 9.756 4.2 9.228V5.16C4.2 4.632 4.62 4.2 5.16 4.2H6.12C6.66 4.2 7.08 4.62 7.08 5.16V5.82Z" fill="white"/>
<path d="M14.2753 5.82H15.4753V5.16C15.4753 3.96 14.5153 3 13.3153 3H12.3553C11.1673 3 10.1953 3.96 10.1953 5.16V9.228C10.1953 10.416 11.1673 11.4 12.3553 11.4H13.3153C14.5153 11.4 15.4753 10.416 15.4753 9.228V8.568H14.2753V9.228C14.2753 9.756 13.8433 10.188 13.3153 10.188H12.3553C11.8273 10.188 11.3953 9.756 11.3953 9.228V5.16C11.3953 4.632 11.8153 4.2 12.3553 4.2H13.3153C13.8553 4.2 14.2753 4.62 14.2753 5.16V5.82Z" fill="white"/>
<path d="M20.5106 3H19.5506C18.3626 3 17.3906 3.96 17.3906 5.16V9.228C17.3906 10.416 18.3626 11.4 19.5506 11.4H20.5106C21.7106 11.4 22.6706 10.416 22.6706 9.228V5.16C22.6706 3.96 21.7106 3 20.5106 3ZM20.5106 4.2C21.0506 4.2 21.4706 4.62 21.4706 5.16V8.388L18.9986 4.368C19.1546 4.26 19.3466 4.2 19.5506 4.2H20.5106ZM19.5506 10.188C19.0226 10.188 18.5906 9.756 18.5906 9.228V6.012L21.0506 10.02C20.8946 10.128 20.7146 10.188 20.5106 10.188H19.5506Z" fill="white"/>
</svg>
