<svg fill="none" height="17" viewBox="0 0 35 17" width="35" xmlns="http://www.w3.org/2000/svg"><rect fill="#1b2b22" height="16.4" rx="3" width="34.8659"/><g fill="#0f6"><path d="m4 9.688v.48c0 1.236.996 2.232 2.232 2.232h.804c1.272 0 2.244-.912 2.244-2.112 0-2.532-3.96-3.024-3.96-4.296 0-.492.384-.792 1.032-.792h.564c.576 0 1.044.456 1.044 1.032v.36h1.2v-.36c0-1.236-1.008-2.232-2.244-2.232h-.564c-1.308 0-2.232.816-2.232 1.992 0 2.28 3.96 2.64 3.96 4.296 0 .528-.432.912-1.044.912h-.804c-.564 0-1.032-.468-1.032-1.032v-.48z"/><path d="m14.3153 12.4c1.2 0 2.16-.984 2.16-2.172v-4.068c0-1.2-.96-2.16-2.16-2.16h-.96c-1.188 0-2.16.96-2.16 2.16v4.068c0 1.188.972 2.172 2.16 2.172zm0-1.212h-.96c-.528 0-.96-.432-.96-.96v-4.068c0-.528.42-.96.96-.96h.96c.54 0 .96.42.96.96v4.068c0 .528-.432.96-.96.96z"/><path d="m21.5106 12.4c1.2 0 2.16-.984 2.16-2.172v-4.068c0-1.2-.96-2.16-2.16-2.16h-.96c-1.188 0-2.16.96-2.16 2.16v4.068c0 1.188.972 2.172 2.16 2.172zm0-1.212h-.96c-.528 0-.96-.432-.96-.96v-4.068c0-.528.42-.96.96-.96h.96c.54 0 .96.42.96.96v4.068c0 .528-.432.96-.96.96z"/><path d="m29.6659 4v6.384l-2.34-6.384h-1.74v8.4h1.2v-6.384l2.34 6.384h1.74v-8.4z"/></g></svg>
