<svg width="33" height="15" viewBox="0 0 33 15" fill="none" xmlns="http://www.w3.org/2000/svg">
<rect width="32.8659" height="14.4" rx="3" fill="black"/>
<path d="M3 8.688V9.168C3 10.404 3.996 11.4 5.232 11.4H6.036C7.308 11.4 8.28 10.488 8.28 9.288C8.28 6.756 4.32 6.264 4.32 4.992C4.32 4.5 4.704 4.2 5.352 4.2H5.916C6.492 4.2 6.96 4.656 6.96 5.232V5.592H8.16V5.232C8.16 3.996 7.152 3 5.916 3H5.352C4.044 3 3.12 3.816 3.12 4.992C3.12 7.272 7.08 7.632 7.08 9.288C7.08 9.816 6.648 10.2 6.036 10.2H5.232C4.668 10.2 4.2 9.732 4.2 9.168V8.688H3Z" fill="white"/>
<path d="M13.3153 11.4C14.5153 11.4 15.4753 10.416 15.4753 9.228V5.16C15.4753 3.96 14.5153 3 13.3153 3H12.3553C11.1673 3 10.1953 3.96 10.1953 5.16V9.228C10.1953 10.416 11.1673 11.4 12.3553 11.4H13.3153ZM13.3153 10.188H12.3553C11.8273 10.188 11.3953 9.756 11.3953 9.228V5.16C11.3953 4.632 11.8153 4.2 12.3553 4.2H13.3153C13.8553 4.2 14.2753 4.62 14.2753 5.16V9.228C14.2753 9.756 13.8433 10.188 13.3153 10.188Z" fill="white"/>
<path d="M20.5106 11.4C21.7106 11.4 22.6706 10.416 22.6706 9.228V5.16C22.6706 3.96 21.7106 3 20.5106 3H19.5506C18.3626 3 17.3906 3.96 17.3906 5.16V9.228C17.3906 10.416 18.3626 11.4 19.5506 11.4H20.5106ZM20.5106 10.188H19.5506C19.0226 10.188 18.5906 9.756 18.5906 9.228V5.16C18.5906 4.632 19.0106 4.2 19.5506 4.2H20.5106C21.0506 4.2 21.4706 4.62 21.4706 5.16V9.228C21.4706 9.756 21.0386 10.188 20.5106 10.188Z" fill="white"/>
<path d="M28.6659 3V9.384L26.3259 3H24.5859V11.4H25.7859V5.016L28.1259 11.4H29.8659V3H28.6659Z" fill="white"/>
</svg>
